# xmcd
# 
# Track frame offsets:
#     150
#     15805
#     32459
#     52493
#     69027
#     82882
#     97885
#     115989
#     128842
#     137546
#     149157
#     168927
# 
# Disc length: 2547
# 
# Revision: 3
# Processed by: cddbd v1.5.2PL0 Copyright (c) Steve Scherf et al.
# Submitted via: fre:ac v1.0.31
# 
DISCID=9509f10c
DTITLE=Christmas - The Charlie Daniels Band A Merry Christmas To All
DYEAR=0
DGENRE=Christmas
TTITLE0=I'll Be Home For Christmas
TTITLE1=Have Yourself A Merry Little Christmas
TTITLE2=The Christmas Song
TTITLE3=O Little Town Of Bethlehem
TTITLE4=Jesus Is The Light Of The World
TTITLE5=Blue Christmas
TTITLE6=God Bless The Mother
TTITLE7=Rudolph The Red Nosed Reindeer
TTITLE8=Frosty The Snowman
TTITLE9=What Child Is This
TTITLE10=White Christmas
TTITLE11=Its Bad To Have The Blues (At Christmas Time)
EXTD=Charlie Daniels Band 2002 Christmas Release
EXTT0=
EXTT1=
EXTT2=
EXTT3=
EXTT4=
EXTT5=
EXTT6=
EXTT7=
EXTT8=
EXTT9=
EXTT10=
EXTT11=
PLAYORDER=
